# xmcd
# 
# Track frame offsets:
#   150
#   20590
#   35729
#   52746
#   68144
#   81319
#   103433
#   119632
#   135973
#   150181
#   163519
#   180656
#   198931
#   216582
#   234095
# 
# Disc length: 3355 seconds
# 
# Revision: 0
# Processed by: cddbd v1.5.1PL2 Copyright (c) Steve Scherf et al.
# Submitted via: Synapstar 1.0 
# 
DISCID=c80d190f
DTITLE=Various Artist - mm music maestro
DYEAR=1900
DGENRE=Country
TTITLE0=sara evans - i keep looking
TTITLE1=brad paisley - i'm gonna miss her
TTITLE2=george strait - living and living well
TTITLE3=shedaisy - get over yourself
TTITLE4=jamie o'neal - frantic
TTITLE5=dixie chicks - travlin' soldier
TTITLE6=darryl worley - i miss my friend
TTITLE7=brett james - chasin' amy
TTITLE8=tracy byrd - ten rounds with jose cuervo
TTITLE9=little big town - don't waste my time
TTITLE10=diAMOND RIO - beautiful mess
TTITLE11=joe nicholes - the impossible
TTITLE12=jeff carson - until we fall back in love again
TTITLE13=trace atkins - help me understand
TTITLE14=joe diffie - this pretender
EXTD=MediaType: Karaoke CD+G Producer: Music Maestro
EXTT0=
EXTT1=
EXTT2=
EXTT3=
EXTT4=
EXTT5=
EXTT6=
EXTT7=
EXTT8=
EXTT9=
EXTT10=
EXTT11=
EXTT12=
EXTT13=
EXTT14=
PLAYORDER=
